ISO-10303-21;
HEADER;
/* Generated by software containing ST-Developer
 * from STEP Tools, Inc. (www.steptools.com) 
 */
/* OPTION: using custom renumber hook */

FILE_DESCRIPTION(
/* description */ ('STEP AP242 Edition 2',
'CAx-IF Rec.Pracs.---Representation and Presentation of Product Manufa
cturing Information (PMI)---4.0---2014-10-13',
'CAx-IF Rec.Pracs.---3D Tessellated Geometry---0.4---2014-09-14','2;1',
'CAx-IF Rec.Pracs.---User Defined Attributes---1.5---2016-08-15'),
/* implementation_level */ '2;1');

FILE_NAME(
/* name */ 'sg90 horn - Button masher horn',
/* time_stamp */ '2026-06-05T22:20:43Z',
/* author */ (''),
/* organization */ (''),
/* preprocessor_version */ 'ST-DEVELOPER v20',
/* originating_system */ 'ONSHAPE BY PTC INC, 1.216',
/* authorisation */ '  ');

FILE_SCHEMA (('AP242_MANAGED_MODEL_BASED_3D_ENGINEERING_MIM_LF { 1 0 10303 442 3 1 4 }'));
ENDSEC;

DATA;
#10=SHAPE_REPRESENTATION_RELATIONSHIP('','',#307,#11);
#11=ADVANCED_BREP_SHAPE_REPRESENTATION('',(#305),#557);
#12=B_SPLINE_SURFACE_WITH_KNOTS('',3,1,((#527,#528),(#529,#530),(#531,#532),
(#533,#534),(#535,#536),(#537,#538),(#539,#540)),
 .SURF_OF_LINEAR_EXTRUSION.,.F.,.F.,.F.,(4,1,1,1,4),(2,2),(-1.12767888649458E-14,
0.249999999999992,0.499999999999995,0.749999999999998,1.),(0.,1.),
 .UNSPECIFIED.);
#13=B_SPLINE_SURFACE_WITH_KNOTS('',3,1,((#541,#542),(#543,#544),(#545,#546),
(#547,#548),(#549,#550),(#551,#552),(#553,#554)),
 .SURF_OF_LINEAR_EXTRUSION.,.F.,.F.,.F.,(4,1,1,1,4),(2,2),(3.80078177136601E-16,
0.250000000000004,0.500000000000007,0.75000000000001,1.00000000000001),
(0.,1.),.UNSPECIFIED.);
#14=B_SPLINE_CURVE_WITH_KNOTS('',3,(#435,#436,#437,#438),.UNSPECIFIED.,
 .F.,.F.,(4,4),(0.,1.),.UNSPECIFIED.);
#15=B_SPLINE_CURVE_WITH_KNOTS('',3,(#444,#445,#446,#447),.UNSPECIFIED.,
 .F.,.F.,(4,4),(0.,1.),.UNSPECIFIED.);
#16=B_SPLINE_CURVE_WITH_KNOTS('',3,(#458,#459,#460,#461,#462),
 .UNSPECIFIED.,.F.,.F.,(4,1,4),(0.,0.000975355401327245,0.00195071080265449),
 .UNSPECIFIED.);
#17=B_SPLINE_CURVE_WITH_KNOTS('',3,(#466,#467,#468,#469,#470),
 .UNSPECIFIED.,.F.,.F.,(4,1,4),(0.,0.000976051482929592,0.00195210296585918),
 .UNSPECIFIED.);
#18=B_SPLINE_CURVE_WITH_KNOTS('',3,(#484,#485,#486,#487,#488),
 .UNSPECIFIED.,.F.,.F.,(4,1,4),(0.,0.000975355401327246,0.00195071080265449),
 .UNSPECIFIED.);
#19=B_SPLINE_CURVE_WITH_KNOTS('',3,(#492,#493,#494,#495,#496),
 .UNSPECIFIED.,.F.,.F.,(4,1,4),(0.,0.00097605148292959,0.00195210296585918),
 .UNSPECIFIED.);
#20=B_SPLINE_CURVE_WITH_KNOTS('',3,(#519,#520,#521,#522),.UNSPECIFIED.,
 .F.,.F.,(4,4),(0.,1.),.UNSPECIFIED.);
#21=B_SPLINE_CURVE_WITH_KNOTS('',3,(#523,#524,#525,#526),.UNSPECIFIED.,
 .F.,.F.,(4,4),(0.,1.),.UNSPECIFIED.);
#22=PLANE('',#312);
#23=PLANE('',#313);
#24=PLANE('',#317);
#25=PLANE('',#326);
#26=PLANE('',#334);
#27=CIRCLE('',#310,0.00349999999999995);
#28=CIRCLE('',#311,0.00349999999999995);
#29=CIRCLE('',#315,0.00125);
#30=CIRCLE('',#316,0.00125);
#31=CIRCLE('',#318,0.0024);
#32=CIRCLE('',#319,0.0055);
#33=CIRCLE('',#320,0.0005);
#34=CIRCLE('',#321,0.0005);
#35=CIRCLE('',#322,0.0005);
#36=CIRCLE('',#323,0.0005);
#37=CIRCLE('',#324,0.0005);
#38=CIRCLE('',#325,0.0005);
#39=CIRCLE('',#327,0.0055);
#40=CIRCLE('',#328,0.0005);
#41=CIRCLE('',#329,0.0005);
#42=CIRCLE('',#330,0.0005);
#43=CIRCLE('',#331,0.0005);
#44=CIRCLE('',#332,0.0005);
#45=CIRCLE('',#333,0.0005);
#46=CIRCLE('',#335,0.0024);
#47=ORIENTED_EDGE('',*,*,#115,.F.);
#48=ORIENTED_EDGE('',*,*,#116,.F.);
#49=ORIENTED_EDGE('',*,*,#117,.T.);
#50=ORIENTED_EDGE('',*,*,#118,.T.);
#51=ORIENTED_EDGE('',*,*,#119,.T.);
#52=ORIENTED_EDGE('',*,*,#120,.T.);
#53=ORIENTED_EDGE('',*,*,#121,.F.);
#54=ORIENTED_EDGE('',*,*,#115,.T.);
#55=ORIENTED_EDGE('',*,*,#122,.T.);
#56=ORIENTED_EDGE('',*,*,#123,.T.);
#57=ORIENTED_EDGE('',*,*,#124,.F.);
#58=ORIENTED_EDGE('',*,*,#117,.F.);
#59=ORIENTED_EDGE('',*,*,#125,.T.);
#60=ORIENTED_EDGE('',*,*,#126,.T.);
#61=ORIENTED_EDGE('',*,*,#127,.T.);
#62=ORIENTED_EDGE('',*,*,#116,.T.);
#63=ORIENTED_EDGE('',*,*,#121,.T.);
#64=ORIENTED_EDGE('',*,*,#128,.T.);
#65=ORIENTED_EDGE('',*,*,#129,.F.);
#66=ORIENTED_EDGE('',*,*,#130,.T.);
#67=ORIENTED_EDGE('',*,*,#122,.F.);
#68=ORIENTED_EDGE('',*,*,#131,.F.);
#69=ORIENTED_EDGE('',*,*,#132,.F.);
#70=ORIENTED_EDGE('',*,*,#133,.F.);
#71=ORIENTED_EDGE('',*,*,#134,.F.);
#72=ORIENTED_EDGE('',*,*,#135,.F.);
#73=ORIENTED_EDGE('',*,*,#136,.F.);
#74=ORIENTED_EDGE('',*,*,#124,.T.);
#75=ORIENTED_EDGE('',*,*,#137,.T.);
#76=ORIENTED_EDGE('',*,*,#138,.T.);
#77=ORIENTED_EDGE('',*,*,#139,.T.);
#78=ORIENTED_EDGE('',*,*,#119,.F.);
#79=ORIENTED_EDGE('',*,*,#118,.F.);
#80=ORIENTED_EDGE('',*,*,#140,.T.);
#81=ORIENTED_EDGE('',*,*,#141,.T.);
#82=ORIENTED_EDGE('',*,*,#142,.T.);
#83=ORIENTED_EDGE('',*,*,#143,.T.);
#84=ORIENTED_EDGE('',*,*,#144,.T.);
#85=ORIENTED_EDGE('',*,*,#145,.T.);
#86=ORIENTED_EDGE('',*,*,#126,.F.);
#87=ORIENTED_EDGE('',*,*,#125,.F.);
#88=ORIENTED_EDGE('',*,*,#146,.F.);
#89=ORIENTED_EDGE('',*,*,#145,.F.);
#90=ORIENTED_EDGE('',*,*,#131,.T.);
#91=ORIENTED_EDGE('',*,*,#144,.F.);
#92=ORIENTED_EDGE('',*,*,#136,.T.);
#93=ORIENTED_EDGE('',*,*,#143,.F.);
#94=ORIENTED_EDGE('',*,*,#135,.T.);
#95=ORIENTED_EDGE('',*,*,#142,.F.);
#96=ORIENTED_EDGE('',*,*,#134,.T.);
#97=ORIENTED_EDGE('',*,*,#141,.F.);
#98=ORIENTED_EDGE('',*,*,#133,.T.);
#99=ORIENTED_EDGE('',*,*,#140,.F.);
#100=ORIENTED_EDGE('',*,*,#132,.T.);
#101=ORIENTED_EDGE('',*,*,#138,.F.);
#102=ORIENTED_EDGE('',*,*,#147,.T.);
#103=ORIENTED_EDGE('',*,*,#129,.T.);
#104=ORIENTED_EDGE('',*,*,#148,.T.);
#105=ORIENTED_EDGE('',*,*,#130,.F.);
#106=ORIENTED_EDGE('',*,*,#147,.F.);
#107=ORIENTED_EDGE('',*,*,#137,.F.);
#108=ORIENTED_EDGE('',*,*,#123,.F.);
#109=ORIENTED_EDGE('',*,*,#128,.F.);
#110=ORIENTED_EDGE('',*,*,#120,.F.);
#111=ORIENTED_EDGE('',*,*,#139,.F.);
#112=ORIENTED_EDGE('',*,*,#148,.F.);
#113=ORIENTED_EDGE('',*,*,#146,.T.);
#114=ORIENTED_EDGE('',*,*,#127,.F.);
#115=EDGE_CURVE('',#149,#150,#177,.T.);
#116=EDGE_CURVE('',#151,#149,#27,.T.);
#117=EDGE_CURVE('',#151,#152,#178,.T.);
#118=EDGE_CURVE('',#152,#150,#28,.T.);
#119=EDGE_CURVE('',#150,#153,#179,.T.);
#120=EDGE_CURVE('',#153,#154,#14,.T.);
#121=EDGE_CURVE('',#149,#154,#180,.T.);
#122=EDGE_CURVE('',#151,#155,#181,.T.);
#123=EDGE_CURVE('',#155,#156,#15,.T.);
#124=EDGE_CURVE('',#152,#156,#182,.T.);
#125=EDGE_CURVE('',#157,#157,#29,.T.);
#126=EDGE_CURVE('',#158,#158,#30,.F.);
#127=EDGE_CURVE('',#159,#159,#31,.T.);
#128=EDGE_CURVE('',#154,#160,#16,.T.);
#129=EDGE_CURVE('',#161,#160,#32,.F.);
#130=EDGE_CURVE('',#161,#155,#17,.T.);
#131=EDGE_CURVE('',#162,#162,#33,.T.);
#132=EDGE_CURVE('',#163,#163,#34,.T.);
#133=EDGE_CURVE('',#164,#164,#35,.T.);
#134=EDGE_CURVE('',#165,#165,#36,.T.);
#135=EDGE_CURVE('',#166,#166,#37,.T.);
#136=EDGE_CURVE('',#167,#167,#38,.T.);
#137=EDGE_CURVE('',#156,#168,#18,.T.);
#138=EDGE_CURVE('',#168,#169,#39,.T.);
#139=EDGE_CURVE('',#169,#153,#19,.T.);
#140=EDGE_CURVE('',#170,#170,#40,.T.);
#141=EDGE_CURVE('',#171,#171,#41,.T.);
#142=EDGE_CURVE('',#172,#172,#42,.T.);
#143=EDGE_CURVE('',#173,#173,#43,.T.);
#144=EDGE_CURVE('',#174,#174,#44,.T.);
#145=EDGE_CURVE('',#175,#175,#45,.T.);
#146=EDGE_CURVE('',#176,#176,#46,.T.);
#147=EDGE_CURVE('',#168,#161,#20,.T.);
#148=EDGE_CURVE('',#160,#169,#21,.T.);
#149=VERTEX_POINT('',#425);
#150=VERTEX_POINT('',#426);
#151=VERTEX_POINT('',#428);
#152=VERTEX_POINT('',#430);
#153=VERTEX_POINT('',#434);
#154=VERTEX_POINT('',#439);
#155=VERTEX_POINT('',#443);
#156=VERTEX_POINT('',#448);
#157=VERTEX_POINT('',#452);
#158=VERTEX_POINT('',#454);
#159=VERTEX_POINT('',#457);
#160=VERTEX_POINT('',#463);
#161=VERTEX_POINT('',#465);
#162=VERTEX_POINT('',#472);
#163=VERTEX_POINT('',#474);
#164=VERTEX_POINT('',#476);
#165=VERTEX_POINT('',#478);
#166=VERTEX_POINT('',#480);
#167=VERTEX_POINT('',#482);
#168=VERTEX_POINT('',#489);
#169=VERTEX_POINT('',#491);
#170=VERTEX_POINT('',#498);
#171=VERTEX_POINT('',#500);
#172=VERTEX_POINT('',#502);
#173=VERTEX_POINT('',#504);
#174=VERTEX_POINT('',#506);
#175=VERTEX_POINT('',#508);
#176=VERTEX_POINT('',#511);
#177=LINE('',#424,#183);
#178=LINE('',#429,#184);
#179=LINE('',#433,#185);
#180=LINE('',#440,#186);
#181=LINE('',#442,#187);
#182=LINE('',#449,#188);
#183=VECTOR('',#348,1.);
#184=VECTOR('',#351,1.);
#185=VECTOR('',#356,1.);
#186=VECTOR('',#357,1.);
#187=VECTOR('',#360,1.);
#188=VECTOR('',#361,1.);
#189=EDGE_LOOP('',(#47,#48,#49,#50));
#190=EDGE_LOOP('',(#51,#52,#53,#54));
#191=EDGE_LOOP('',(#55,#56,#57,#58));
#192=EDGE_LOOP('',(#59));
#193=EDGE_LOOP('',(#60));
#194=EDGE_LOOP('',(#61));
#195=EDGE_LOOP('',(#62,#63,#64,#65,#66,#67));
#196=EDGE_LOOP('',(#68));
#197=EDGE_LOOP('',(#69));
#198=EDGE_LOOP('',(#70));
#199=EDGE_LOOP('',(#71));
#200=EDGE_LOOP('',(#72));
#201=EDGE_LOOP('',(#73));
#202=EDGE_LOOP('',(#74,#75,#76,#77,#78,#79));
#203=EDGE_LOOP('',(#80));
#204=EDGE_LOOP('',(#81));
#205=EDGE_LOOP('',(#82));
#206=EDGE_LOOP('',(#83));
#207=EDGE_LOOP('',(#84));
#208=EDGE_LOOP('',(#85));
#209=EDGE_LOOP('',(#86));
#210=EDGE_LOOP('',(#87));
#211=EDGE_LOOP('',(#88));
#212=EDGE_LOOP('',(#89));
#213=EDGE_LOOP('',(#90));
#214=EDGE_LOOP('',(#91));
#215=EDGE_LOOP('',(#92));
#216=EDGE_LOOP('',(#93));
#217=EDGE_LOOP('',(#94));
#218=EDGE_LOOP('',(#95));
#219=EDGE_LOOP('',(#96));
#220=EDGE_LOOP('',(#97));
#221=EDGE_LOOP('',(#98));
#222=EDGE_LOOP('',(#99));
#223=EDGE_LOOP('',(#100));
#224=EDGE_LOOP('',(#101,#102,#103,#104));
#225=EDGE_LOOP('',(#105,#106,#107,#108));
#226=EDGE_LOOP('',(#109,#110,#111,#112));
#227=EDGE_LOOP('',(#113));
#228=EDGE_LOOP('',(#114));
#229=FACE_BOUND('',#189,.T.);
#230=FACE_BOUND('',#190,.T.);
#231=FACE_BOUND('',#191,.T.);
#232=FACE_BOUND('',#192,.T.);
#233=FACE_BOUND('',#193,.T.);
#234=FACE_BOUND('',#194,.T.);
#235=FACE_BOUND('',#195,.T.);
#236=FACE_BOUND('',#196,.T.);
#237=FACE_BOUND('',#197,.T.);
#238=FACE_BOUND('',#198,.T.);
#239=FACE_BOUND('',#199,.T.);
#240=FACE_BOUND('',#200,.T.);
#241=FACE_BOUND('',#201,.T.);
#242=FACE_BOUND('',#202,.T.);
#243=FACE_BOUND('',#203,.T.);
#244=FACE_BOUND('',#204,.T.);
#245=FACE_BOUND('',#205,.T.);
#246=FACE_BOUND('',#206,.T.);
#247=FACE_BOUND('',#207,.T.);
#248=FACE_BOUND('',#208,.T.);
#249=FACE_BOUND('',#209,.T.);
#250=FACE_BOUND('',#210,.T.);
#251=FACE_BOUND('',#211,.T.);
#252=FACE_BOUND('',#212,.T.);
#253=FACE_BOUND('',#213,.T.);
#254=FACE_BOUND('',#214,.T.);
#255=FACE_BOUND('',#215,.T.);
#256=FACE_BOUND('',#216,.T.);
#257=FACE_BOUND('',#217,.T.);
#258=FACE_BOUND('',#218,.T.);
#259=FACE_BOUND('',#219,.T.);
#260=FACE_BOUND('',#220,.T.);
#261=FACE_BOUND('',#221,.T.);
#262=FACE_BOUND('',#222,.T.);
#263=FACE_BOUND('',#223,.T.);
#264=FACE_BOUND('',#224,.T.);
#265=FACE_BOUND('',#225,.T.);
#266=FACE_BOUND('',#226,.T.);
#267=FACE_BOUND('',#227,.T.);
#268=FACE_BOUND('',#228,.T.);
#269=CYLINDRICAL_SURFACE('',#309,0.00349999999999995);
#270=CYLINDRICAL_SURFACE('',#314,0.00125);
#271=CYLINDRICAL_SURFACE('',#336,0.0005);
#272=CYLINDRICAL_SURFACE('',#337,0.0005);
#273=CYLINDRICAL_SURFACE('',#338,0.0005);
#274=CYLINDRICAL_SURFACE('',#339,0.0005);
#275=CYLINDRICAL_SURFACE('',#340,0.0005);
#276=CYLINDRICAL_SURFACE('',#341,0.0005);
#277=CYLINDRICAL_SURFACE('',#342,0.0055);
#278=CYLINDRICAL_SURFACE('',#343,0.0024);
#279=ADVANCED_FACE('',(#229),#269,.T.);
#280=ADVANCED_FACE('',(#230),#22,.F.);
#281=ADVANCED_FACE('',(#231),#23,.T.);
#282=ADVANCED_FACE('',(#232,#233),#270,.F.);
#283=ADVANCED_FACE('',(#234,#235,#236,#237,#238,#239,#240,#241),#24,.T.);
#284=ADVANCED_FACE('',(#242,#243,#244,#245,#246,#247,#248,#249),#25,.F.);
#285=ADVANCED_FACE('',(#250,#251),#26,.T.);
#286=ADVANCED_FACE('',(#252,#253),#271,.F.);
#287=ADVANCED_FACE('',(#254,#255),#272,.F.);
#288=ADVANCED_FACE('',(#256,#257),#273,.F.);
#289=ADVANCED_FACE('',(#258,#259),#274,.F.);
#290=ADVANCED_FACE('',(#260,#261),#275,.F.);
#291=ADVANCED_FACE('',(#262,#263),#276,.F.);
#292=ADVANCED_FACE('',(#264),#277,.T.);
#293=ADVANCED_FACE('',(#265),#12,.F.);
#294=ADVANCED_FACE('',(#266),#13,.F.);
#295=ADVANCED_FACE('',(#267,#268),#278,.F.);
#296=CLOSED_SHELL('',(#279,#280,#281,#282,#283,#284,#285,#286,#287,#288,
#289,#290,#291,#292,#293,#294,#295));
#297=STYLED_ITEM('',(#298),#305);
#298=PRESENTATION_STYLE_ASSIGNMENT((#299));
#299=SURFACE_STYLE_USAGE(.BOTH.,#300);
#300=SURFACE_SIDE_STYLE('',(#301));
#301=SURFACE_STYLE_FILL_AREA(#302);
#302=FILL_AREA_STYLE('',(#303));
#303=FILL_AREA_STYLE_COLOUR('',#304);
#304=COLOUR_RGB('',0.615686274509804,0.811764705882353,0.929411764705882);
#305=MANIFOLD_SOLID_BREP('Button masher horn',#296);
#306=SHAPE_DEFINITION_REPRESENTATION(#562,#307);
#307=SHAPE_REPRESENTATION('Button masher horn',(#308),#557);
#308=AXIS2_PLACEMENT_3D('',#422,#344,#345);
#309=AXIS2_PLACEMENT_3D('',#423,#346,#347);
#310=AXIS2_PLACEMENT_3D('',#427,#349,#350);
#311=AXIS2_PLACEMENT_3D('',#431,#352,#353);
#312=AXIS2_PLACEMENT_3D('',#432,#354,#355);
#313=AXIS2_PLACEMENT_3D('',#441,#358,#359);
#314=AXIS2_PLACEMENT_3D('',#450,#362,#363);
#315=AXIS2_PLACEMENT_3D('',#451,#364,#365);
#316=AXIS2_PLACEMENT_3D('',#453,#366,#367);
#317=AXIS2_PLACEMENT_3D('',#455,#368,#369);
#318=AXIS2_PLACEMENT_3D('',#456,#370,#371);
#319=AXIS2_PLACEMENT_3D('',#464,#372,#373);
#320=AXIS2_PLACEMENT_3D('',#471,#374,#375);
#321=AXIS2_PLACEMENT_3D('',#473,#376,#377);
#322=AXIS2_PLACEMENT_3D('',#475,#378,#379);
#323=AXIS2_PLACEMENT_3D('',#477,#380,#381);
#324=AXIS2_PLACEMENT_3D('',#479,#382,#383);
#325=AXIS2_PLACEMENT_3D('',#481,#384,#385);
#326=AXIS2_PLACEMENT_3D('',#483,#386,#387);
#327=AXIS2_PLACEMENT_3D('',#490,#388,#389);
#328=AXIS2_PLACEMENT_3D('',#497,#390,#391);
#329=AXIS2_PLACEMENT_3D('',#499,#392,#393);
#330=AXIS2_PLACEMENT_3D('',#501,#394,#395);
#331=AXIS2_PLACEMENT_3D('',#503,#396,#397);
#332=AXIS2_PLACEMENT_3D('',#505,#398,#399);
#333=AXIS2_PLACEMENT_3D('',#507,#400,#401);
#334=AXIS2_PLACEMENT_3D('',#509,#402,#403);
#335=AXIS2_PLACEMENT_3D('',#510,#404,#405);
#336=AXIS2_PLACEMENT_3D('',#512,#406,#407);
#337=AXIS2_PLACEMENT_3D('',#513,#408,#409);
#338=AXIS2_PLACEMENT_3D('',#514,#410,#411);
#339=AXIS2_PLACEMENT_3D('',#515,#412,#413);
#340=AXIS2_PLACEMENT_3D('',#516,#414,#415);
#341=AXIS2_PLACEMENT_3D('',#517,#416,#417);
#342=AXIS2_PLACEMENT_3D('',#518,#418,#419);
#343=AXIS2_PLACEMENT_3D('',#555,#420,#421);
#344=DIRECTION('',(0.,0.,1.));
#345=DIRECTION('',(1.,0.,0.));
#346=DIRECTION('',(0.,0.,-1.));
#347=DIRECTION('',(-1.,0.,0.));
#348=DIRECTION('',(0.,0.,-1.));
#349=DIRECTION('',(0.,0.,1.));
#350=DIRECTION('',(1.,0.,0.));
#351=DIRECTION('',(0.,0.,-1.));
#352=DIRECTION('',(0.,0.,1.));
#353=DIRECTION('',(1.,0.,0.));
#354=DIRECTION('',(0.120183344635115,-0.99275171300397,0.));
#355=DIRECTION('',(0.99275171300397,0.120183344635115,0.));
#356=DIRECTION('',(-0.99275171300397,-0.120183344635115,0.));
#357=DIRECTION('',(-0.99275171300397,-0.120183344635115,0.));
#358=DIRECTION('',(-0.120183344635115,-0.99275171300397,0.));
#359=DIRECTION('',(0.99275171300397,-0.120183344635115,0.));
#360=DIRECTION('',(-0.99275171300397,0.120183344635115,0.));
#361=DIRECTION('',(-0.99275171300397,0.120183344635115,0.));
#362=DIRECTION('',(0.,0.,1.));
#363=DIRECTION('',(1.,0.,0.));
#364=DIRECTION('',(0.,0.,1.));
#365=DIRECTION('',(1.,0.,0.));
#366=DIRECTION('',(0.,0.,1.));
#367=DIRECTION('',(1.,0.,0.));
#368=DIRECTION('',(0.,0.,1.));
#369=DIRECTION('',(1.,0.,0.));
#370=DIRECTION('',(0.,0.,-1.));
#371=DIRECTION('',(-1.,0.,0.));
#372=DIRECTION('',(0.,0.,1.));
#373=DIRECTION('',(1.,0.,0.));
#374=DIRECTION('',(0.,0.,1.));
#375=DIRECTION('',(1.,0.,0.));
#376=DIRECTION('',(0.,0.,1.));
#377=DIRECTION('',(1.,0.,0.));
#378=DIRECTION('',(0.,0.,1.));
#379=DIRECTION('',(1.,0.,0.));
#380=DIRECTION('',(0.,0.,1.));
#381=DIRECTION('',(1.,0.,0.));
#382=DIRECTION('',(0.,0.,1.));
#383=DIRECTION('',(1.,0.,0.));
#384=DIRECTION('',(0.,0.,1.));
#385=DIRECTION('',(1.,0.,0.));
#386=DIRECTION('',(0.,0.,1.));
#387=DIRECTION('',(1.,0.,0.));
#388=DIRECTION('',(0.,0.,-1.));
#389=DIRECTION('',(-1.,0.,0.));
#390=DIRECTION('',(0.,0.,1.));
#391=DIRECTION('',(1.,0.,0.));
#392=DIRECTION('',(0.,0.,1.));
#393=DIRECTION('',(1.,0.,0.));
#394=DIRECTION('',(0.,0.,1.));
#395=DIRECTION('',(1.,0.,0.));
#396=DIRECTION('',(0.,0.,1.));
#397=DIRECTION('',(1.,0.,0.));
#398=DIRECTION('',(0.,0.,1.));
#399=DIRECTION('',(1.,0.,0.));
#400=DIRECTION('',(0.,0.,1.));
#401=DIRECTION('',(1.,0.,0.));
#402=DIRECTION('',(0.,0.,1.));
#403=DIRECTION('',(1.,0.,0.));
#404=DIRECTION('',(0.,0.,-1.));
#405=DIRECTION('',(-1.,0.,0.));
#406=DIRECTION('',(0.,0.,1.));
#407=DIRECTION('',(1.,0.,0.));
#408=DIRECTION('',(0.,0.,1.));
#409=DIRECTION('',(1.,0.,0.));
#410=DIRECTION('',(0.,0.,1.));
#411=DIRECTION('',(1.,0.,0.));
#412=DIRECTION('',(0.,0.,1.));
#413=DIRECTION('',(1.,0.,0.));
#414=DIRECTION('',(0.,0.,1.));
#415=DIRECTION('',(1.,0.,0.));
#416=DIRECTION('',(0.,0.,1.));
#417=DIRECTION('',(1.,0.,0.));
#418=DIRECTION('',(0.,0.,-1.));
#419=DIRECTION('',(-1.,0.,0.));
#420=DIRECTION('',(0.,0.,-1.));
#421=DIRECTION('',(-1.,0.,0.));
#422=CARTESIAN_POINT('',(0.,0.,0.));
#423=CARTESIAN_POINT('',(-7.51982426210999E-18,4.64038529823796E-17,0.0035));
#424=CARTESIAN_POINT('',(-0.000835185548827393,0.00339889174570622,0.001));
#425=CARTESIAN_POINT('',(-0.000835185548827393,0.00339889174570622,0.0035));
#426=CARTESIAN_POINT('',(-0.000835185548827393,0.00339889174570622,0.));
#427=CARTESIAN_POINT('',(-7.51982426210999E-18,4.64038529823796E-17,0.0035));
#428=CARTESIAN_POINT('',(-0.000835185548827372,-0.00339889174570613,0.0035));
#429=CARTESIAN_POINT('',(-0.000835185548827393,-0.00339889174570622,0.001));
#430=CARTESIAN_POINT('',(-0.000835185548827393,-0.00339889174570622,0.));
#431=CARTESIAN_POINT('',(-7.51982426210999E-18,4.64038529823796E-17,0.));
#432=CARTESIAN_POINT('',(-0.00769775320096942,0.00256810362173159,0.001));
#433=CARTESIAN_POINT('',(-0.00769775320096942,0.00256810362173159,0.));
#434=CARTESIAN_POINT('',(-0.00469629149216791,0.00293146306219678,0.));
#435=CARTESIAN_POINT('',(-0.0046962914921679,0.00293146306219679,4.33680868994202E-19));
#436=CARTESIAN_POINT('',(-0.0046962914921679,0.00293146306219679,0.00116666666666667));
#437=CARTESIAN_POINT('',(-0.0046962914921679,0.00293146306219679,0.00233333333333333));
#438=CARTESIAN_POINT('',(-0.0046962914921679,0.00293146306219679,0.0035));
#439=CARTESIAN_POINT('',(-0.00469629149216791,0.00293146306219678,0.0035));
#440=CARTESIAN_POINT('',(-0.00769775320096942,0.00256810362173159,0.0035));
#441=CARTESIAN_POINT('',(-0.00769775320096942,-0.00256810362173159,0.001));
#442=CARTESIAN_POINT('',(-0.00769775320096942,-0.00256810362173159,0.0035));
#443=CARTESIAN_POINT('',(-0.0046962914921679,-0.00293146306219678,0.0035));
#444=CARTESIAN_POINT('',(-0.0046962914921679,-0.00293146306219679,0.0035));
#445=CARTESIAN_POINT('',(-0.0046962914921679,-0.00293146306219679,0.00233333333333333));
#446=CARTESIAN_POINT('',(-0.0046962914921679,-0.00293146306219679,0.00116666666666667));
#447=CARTESIAN_POINT('',(-0.0046962914921679,-0.00293146306219679,4.33680868994202E-19));
#448=CARTESIAN_POINT('',(-0.0046962914921679,-0.00293146306219678,0.));
#449=CARTESIAN_POINT('',(-0.00769775320096942,-0.00256810362173159,0.));
#450=CARTESIAN_POINT('',(-7.37257477290143E-18,4.66181661722304E-17,-0.0235));
#451=CARTESIAN_POINT('',(-7.37257477290143E-18,4.66181661722304E-17,0.0015));
#452=CARTESIAN_POINT('',(0.00124999999999999,4.66181661722304E-17,0.0015));
#453=CARTESIAN_POINT('',(-7.37257477290143E-18,4.66181661722304E-17,0.));
#454=CARTESIAN_POINT('',(0.00124999999999999,4.66181661722304E-17,0.));
#455=CARTESIAN_POINT('',(-0.0063,0.,0.0035));
#456=CARTESIAN_POINT('',(0.,0.,0.0035));
#457=CARTESIAN_POINT('',(-0.0024,0.,0.0035));
#458=CARTESIAN_POINT('',(-0.00469629149216791,0.00293146306219679,0.0035));
#459=CARTESIAN_POINT('',(-0.00502277528320521,0.00289193866403959,0.0035));
#460=CARTESIAN_POINT('',(-0.00569420817563236,0.00294744644038276,0.0035));
#461=CARTESIAN_POINT('',(-0.00623110065236424,0.0033572385866461,0.0035));
#462=CARTESIAN_POINT('',(-0.00644688266638797,0.00360577542468347,0.0035));
#463=CARTESIAN_POINT('',(-0.00644688266638797,0.00360577542468346,0.0035));
#464=CARTESIAN_POINT('',(-0.0106,-4.48034006385603E-18,0.0035));
#465=CARTESIAN_POINT('',(-0.00644688266638796,-0.00360577542468347,0.0035));
#466=CARTESIAN_POINT('',(-0.00644688266638796,-0.00360577542468347,0.0035));
#467=CARTESIAN_POINT('',(-0.00623109767800651,-0.00335723516079309,0.0035));
#468=CARTESIAN_POINT('',(-0.00569524527082039,-0.00294784807756369,0.0035));
#469=CARTESIAN_POINT('',(-0.00502278007199487,-0.00289193808430474,0.0035));
#470=CARTESIAN_POINT('',(-0.0046962914921679,-0.00293146306219678,0.0035));
#471=CARTESIAN_POINT('',(-0.0066,-4.14356219409051E-18,0.0035));
#472=CARTESIAN_POINT('',(-0.0061,-4.14356219409051E-18,0.0035));
#473=CARTESIAN_POINT('',(-0.0046,-4.14356219409051E-18,0.0035));
#474=CARTESIAN_POINT('',(-0.0041,-4.14356219409051E-18,0.0035));
#475=CARTESIAN_POINT('',(-0.0126,-4.14356219409051E-18,0.0035));
#476=CARTESIAN_POINT('',(-0.0121,-4.14356219409051E-18,0.0035));
#477=CARTESIAN_POINT('',(-0.0146,-4.14356219409051E-18,0.0035));
#478=CARTESIAN_POINT('',(-0.0141,-4.14356219409051E-18,0.0035));
#479=CARTESIAN_POINT('',(-0.0106,-4.14356219409051E-18,0.0035));
#480=CARTESIAN_POINT('',(-0.0101,-4.14356219409051E-18,0.0035));
#481=CARTESIAN_POINT('',(-0.0086,-4.14356219409051E-18,0.0035));
#482=CARTESIAN_POINT('',(-0.0081,-4.14356219409051E-18,0.0035));
#483=CARTESIAN_POINT('',(-0.0063,0.,0.));
#484=CARTESIAN_POINT('',(-0.0046962914921679,-0.00293146306219679,-3.04931861011548E-20));
#485=CARTESIAN_POINT('',(-0.0050227752832052,-0.00289193866403959,-3.04931861011548E-20));
#486=CARTESIAN_POINT('',(-0.00569420817563235,-0.00294744644038276,-2.49027686492764E-19));
#487=CARTESIAN_POINT('',(-0.00623110065236423,-0.0033572385866461,-4.06575814682064E-20));
#488=CARTESIAN_POINT('',(-0.00644688266638796,-0.00360577542468347,-4.06575814682064E-20));
#489=CARTESIAN_POINT('',(-0.00644688266638796,-0.00360577542468347,0.));
#490=CARTESIAN_POINT('',(-0.0106,-4.48034006385603E-18,0.));
#491=CARTESIAN_POINT('',(-0.00644688266638797,0.00360577542468346,0.));
#492=CARTESIAN_POINT('',(-0.00644688266638797,0.00360577542468346,2.43945488809238E-19));
#493=CARTESIAN_POINT('',(-0.00623109767800652,0.00335723516079308,2.43945488809238E-19));
#494=CARTESIAN_POINT('',(-0.00569524527082039,0.00294784807756369,-3.86247023947961E-19));
#495=CARTESIAN_POINT('',(-0.00502278007199488,0.00289193808430474,-4.06575814682064E-20));
#496=CARTESIAN_POINT('',(-0.00469629149216791,0.00293146306219678,-4.06575814682064E-20));
#497=CARTESIAN_POINT('',(-0.0046,-4.14356219409051E-18,0.));
#498=CARTESIAN_POINT('',(-0.0041,-4.14356219409051E-18,0.));
#499=CARTESIAN_POINT('',(-0.0126,-4.14356219409051E-18,0.));
#500=CARTESIAN_POINT('',(-0.0121,-4.14356219409051E-18,0.));
#501=CARTESIAN_POINT('',(-0.0146,-4.14356219409051E-18,0.));
#502=CARTESIAN_POINT('',(-0.0141,-4.14356219409051E-18,0.));
#503=CARTESIAN_POINT('',(-0.0106,-4.14356219409051E-18,0.));
#504=CARTESIAN_POINT('',(-0.0101,-4.14356219409051E-18,0.));
#505=CARTESIAN_POINT('',(-0.0086,-4.14356219409051E-18,0.));
#506=CARTESIAN_POINT('',(-0.0081,-4.14356219409051E-18,0.));
#507=CARTESIAN_POINT('',(-0.0066,-4.14356219409051E-18,0.));
#508=CARTESIAN_POINT('',(-0.0061,-4.14356219409051E-18,0.));
#509=CARTESIAN_POINT('',(-6.93889390390723E-18,4.59701721133854E-17,0.0015));
#510=CARTESIAN_POINT('',(0.,0.,0.0015));
#511=CARTESIAN_POINT('',(-0.0024,0.,0.0015));
#512=CARTESIAN_POINT('',(-0.0066,-4.14356219409051E-18,-0.024));
#513=CARTESIAN_POINT('',(-0.0086,-4.14356219409051E-18,-0.024));
#514=CARTESIAN_POINT('',(-0.0106,-4.14356219409051E-18,-0.024));
#515=CARTESIAN_POINT('',(-0.0146,-4.14356219409051E-18,-0.024));
#516=CARTESIAN_POINT('',(-0.0126,-4.14356219409051E-18,-0.024));
#517=CARTESIAN_POINT('',(-0.0046,-4.14356219409051E-18,-0.024));
#518=CARTESIAN_POINT('',(-0.0106,-4.48034006385603E-18,0.001002));
#519=CARTESIAN_POINT('',(-0.00644688266638796,-0.00360577542468347,0.));
#520=CARTESIAN_POINT('',(-0.00644688266638796,-0.00360577542468347,0.00116666666666667));
#521=CARTESIAN_POINT('',(-0.00644688266638796,-0.00360577542468347,0.00233333333333333));
#522=CARTESIAN_POINT('',(-0.00644688266638796,-0.00360577542468347,0.0035));
#523=CARTESIAN_POINT('',(-0.00644688266638796,0.00360577542468346,0.0035));
#524=CARTESIAN_POINT('',(-0.00644688266638796,0.00360577542468346,0.00233333333333333));
#525=CARTESIAN_POINT('',(-0.00644688266638796,0.00360577542468346,0.00116666666666667));
#526=CARTESIAN_POINT('',(-0.00644688266638796,0.00360577542468346,0.));
#527=CARTESIAN_POINT('',(-0.0046962914921679,-0.00293146306219678,-4.33680868994202E-19));
#528=CARTESIAN_POINT('',(-0.0046962914921679,-0.00293146306219678,0.0035));
#529=CARTESIAN_POINT('',(-0.00482808277526196,-0.00291550830030766,-4.33680868994202E-19));
#530=CARTESIAN_POINT('',(-0.00482808277526196,-0.00291550830030766,0.0035));
#531=CARTESIAN_POINT('',(-0.00511690704670258,-0.00289245144144547,-4.35114998851987E-19));
#532=CARTESIAN_POINT('',(-0.00511690704670258,-0.00289245144144547,0.0035));
#533=CARTESIAN_POINT('',(-0.00566696340677324,-0.00300404653224263,-4.28661414491953E-19));
#534=CARTESIAN_POINT('',(-0.00566696340677324,-0.00300404653224263,0.0035));
#535=CARTESIAN_POINT('',(-0.00618186583479918,-0.00330869506115578,-4.5232455714541E-19));
#536=CARTESIAN_POINT('',(-0.00618186583479918,-0.00330869506115578,0.0035));
#537=CARTESIAN_POINT('',(-0.00637453501813622,-0.00352244570039074,-2.73058324922273E-19));
#538=CARTESIAN_POINT('',(-0.00637453501813622,-0.00352244570039074,0.0035));
#539=CARTESIAN_POINT('',(-0.00644688266638796,-0.00360577542468347,-3.73447414967231E-19));
#540=CARTESIAN_POINT('',(-0.00644688266638796,-0.00360577542468347,0.0035));
#541=CARTESIAN_POINT('',(-0.00644688266638797,0.00360577542468346,-2.10817089094404E-19));
#542=CARTESIAN_POINT('',(-0.00644688266638797,0.00360577542468346,0.0035));
#543=CARTESIAN_POINT('',(-0.00637453501813623,0.00352244570039073,-1.85719816583164E-19));
#544=CARTESIAN_POINT('',(-0.00637453501813623,0.00352244570039073,0.0035));
#545=CARTESIAN_POINT('',(-0.00618186583479918,0.00330869506115578,2.15567644248344E-20));
#546=CARTESIAN_POINT('',(-0.00618186583479918,0.00330869506115578,0.0035));
#547=CARTESIAN_POINT('',(-0.00566696340677324,0.00300404653224263,-5.80374426822464E-21));
#548=CARTESIAN_POINT('',(-0.00566696340677324,0.00300404653224263,0.0035));
#549=CARTESIAN_POINT('',(-0.00511690704670259,0.00289245144144547,1.65821264806418E-21));
#550=CARTESIAN_POINT('',(-0.00511690704670259,0.00289245144144547,0.0035));
#551=CARTESIAN_POINT('',(-0.00482808277526196,0.00291550830030766,0.));
#552=CARTESIAN_POINT('',(-0.00482808277526196,0.00291550830030766,0.0035));
#553=CARTESIAN_POINT('',(-0.00469629149216791,0.00293146306219678,0.));
#554=CARTESIAN_POINT('',(-0.00469629149216791,0.00293146306219678,0.0035));
#555=CARTESIAN_POINT('',(0.,0.,0.0035));
#556=MECHANICAL_DESIGN_GEOMETRIC_PRESENTATION_REPRESENTATION('',(#297),
#557);
#557=(
GEOMETRIC_REPRESENTATION_CONTEXT(3)
GLOBAL_UNCERTAINTY_ASSIGNED_CONTEXT((#558))
GLOBAL_UNIT_ASSIGNED_CONTEXT((#561,#560,#559))
REPRESENTATION_CONTEXT('Button masher horn','TOP_LEVEL_ASSEMBLY_PART')
);
#558=UNCERTAINTY_MEASURE_WITH_UNIT(LENGTH_MEASURE(2.E-5),#561,
'DISTANCE_ACCURACY_VALUE','Maximum Tolerance applied to model');
#559=(
NAMED_UNIT(*)
SI_UNIT($,.STERADIAN.)
SOLID_ANGLE_UNIT()
);
#560=(
NAMED_UNIT(*)
PLANE_ANGLE_UNIT()
SI_UNIT($,.RADIAN.)
);
#561=(
LENGTH_UNIT()
NAMED_UNIT(*)
SI_UNIT($,.METRE.)
);
#562=PRODUCT_DEFINITION_SHAPE('','',#563);
#563=PRODUCT_DEFINITION('','',#565,#564);
#564=PRODUCT_DEFINITION_CONTEXT('',#571,'design');
#565=PRODUCT_DEFINITION_FORMATION_WITH_SPECIFIED_SOURCE('','',#567,
 .NOT_KNOWN.);
#566=PRODUCT_RELATED_PRODUCT_CATEGORY('','',(#567));
#567=PRODUCT('Button masher horn','Button masher horn',
'Button masher horn',(#569));
#568=PRODUCT_CATEGORY('','');
#569=PRODUCT_CONTEXT('',#571,'mechanical');
#570=APPLICATION_PROTOCOL_DEFINITION('international standard',
'ap242_managed_model_based_3d_engineering',2020,#571);
#571=APPLICATION_CONTEXT('managed model based 3d engineering');
ENDSEC;
END-ISO-10303-21;
